<svg xmlns="http://www.w3.org/2000/svg" width="224" height="225" viewBox="0 0 224 225" fill="none">
  <g clip-path="url(#clip0_5265_2838)">
    <path d="M216.196 110.658L223.45 119.747C224.278 120.785 224.159 122.286 223.179 123.181L214.592 131.024L219.934 141.354C220.545 142.532 220.136 143.982 218.999 144.668L209.047 150.686L212.271 161.86C212.64 163.136 211.955 164.476 210.708 164.929L199.772 168.89L200.755 180.478C200.867 181.801 199.935 182.982 198.622 183.182L187.125 184.932L185.826 196.489C185.678 197.809 184.532 198.786 183.206 198.726L171.589 198.2L168.062 209.282C167.659 210.546 166.344 211.281 165.057 210.965L153.764 208.183L148.143 218.363C147.502 219.526 146.069 219.99 144.868 219.428L134.335 214.495L126.836 223.384C125.98 224.398 124.484 224.575 123.416 223.788L114.048 216.896L104.958 224.15C103.921 224.978 102.419 224.859 101.525 223.879L93.6817 215.292L83.3517 220.634C82.1732 221.245 80.7237 220.836 80.0371 219.699L74.0199 209.747L62.8458 212.971C61.57 213.34 60.2292 212.655 59.7763 211.408L55.8157 200.472L44.2277 201.455C42.9048 201.567 41.7231 200.635 41.5234 199.322L39.7736 187.825L28.2164 186.526C26.8968 186.378 25.9196 185.232 25.9797 183.906L26.5056 172.289L15.424 168.762C14.1595 168.359 13.4242 167.044 13.7407 165.757L16.5229 154.465L6.34219 148.843C5.17997 148.202 4.71574 146.769 5.27737 145.568L10.2103 135.035L1.32163 127.536C0.307126 126.68 0.130197 125.184 0.917449 124.116L7.80956 114.748L0.555476 105.658C-0.272356 104.621 -0.153863 103.119 0.82655 102.225L9.41328 94.3817L4.07133 84.0517C3.461 82.8732 3.87005 81.4237 5.00629 80.7371L14.9581 74.7199L11.7345 63.5458C11.366 62.27 12.051 60.9292 13.2976 60.4763L24.2331 56.5157L23.2511 44.9277C23.1391 43.6048 24.0708 42.4231 25.3839 42.2234L36.8811 40.4736L38.1796 28.9164C38.3273 27.5968 39.4733 26.6196 40.7995 26.6797L52.4167 27.2056L55.9439 16.124C56.3465 14.8595 57.6613 14.1242 58.9485 14.4407L70.2411 17.2229L75.8622 7.0422C76.5034 5.87999 77.9367 5.41575 79.1378 5.97738L89.6708 10.9103L97.17 2.02164C98.0254 1.00714 99.522 0.83021 100.59 1.61746L109.958 8.50957L119.047 1.25549C120.085 0.427656 121.586 0.546149 122.481 1.52656L130.324 10.1133L140.654 4.77134C141.832 4.16102 143.282 4.57006 143.968 5.7063L149.986 15.6581L161.16 12.4345C162.436 12.066 163.776 12.751 164.229 13.9976L168.19 24.9331L179.778 23.9511C181.101 23.8391 182.283 24.7708 182.482 26.084L184.232 37.5811L195.789 38.8797C197.109 39.0274 198.086 40.1733 198.026 41.4995L197.5 53.1167L208.582 56.644C209.846 57.0465 210.581 58.3613 210.265 59.6485L207.483 70.9411L217.663 76.5622C218.826 77.2034 219.29 78.6367 218.728 79.8379L213.795 90.3708L222.684 97.87C223.698 98.7254 223.875 100.222 223.088 101.29L216.196 110.658Z" fill="url(#paint0_linear_5265_2838)"/>
    <path d="M112.001 208.455C164.883 208.455 207.753 165.585 207.753 112.703C207.753 59.8201 164.883 16.9502 112.001 16.9502C59.1181 16.9502 16.2482 59.8201 16.2482 112.703C16.2482 165.585 59.1181 208.455 112.001 208.455Z" fill="#292B3D"/>
    <path d="M112.001 205.908C163.477 205.908 205.207 164.178 205.207 112.702C205.207 61.2257 163.477 19.4961 112.001 19.4961C60.5247 19.4961 18.795 61.2257 18.795 112.702C18.795 164.178 60.5247 205.908 112.001 205.908Z" fill="#3B3D53"/>
    <path d="M112.001 175.259C146.55 175.259 174.557 147.251 174.557 112.702C174.557 78.153 146.55 50.1455 112.001 50.1455C77.4518 50.1455 49.4443 78.153 49.4443 112.702C49.4443 147.251 77.4518 175.259 112.001 175.259Z" fill="url(#paint1_linear_5265_2838)"/>
    <path d="M112.001 171.944C144.719 171.944 171.243 145.42 171.243 112.702C171.243 79.9835 144.719 53.46 112.001 53.46C79.2824 53.46 52.7589 79.9835 52.7589 112.702C52.7589 145.42 79.2824 171.944 112.001 171.944Z" fill="url(#paint2_linear_5265_2838)"/>
    <path d="M112.001 171.944C144.719 171.944 171.243 145.42 171.243 112.702C171.243 79.9835 144.719 53.46 112.001 53.46C79.2824 53.46 52.7589 79.9835 52.7589 112.702C52.7589 145.42 79.2824 171.944 112.001 171.944Z" fill="url(#paint3_linear_5265_2838)"/>
    <path d="M55.429 179.578L56.39 178.218L56.3527 178.186C54.6353 178.762 53.5705 178.467 52.1794 177.21C49.4508 174.746 50.2754 172.065 52.5235 169.575L57.6171 163.934C60.3133 160.949 62.9445 160.796 65.8922 163.46C68.6403 165.942 69.2116 168.586 66.6811 171.388L65.7542 172.414L62.5306 169.503L63.209 168.752C64.2674 167.58 64.6504 166.861 63.8064 166.065C62.8162 165.137 62.0809 165.471 61.2709 166.369L55.1353 173.164C54.4405 173.933 54.3756 174.706 55.218 175.465C56.3169 176.457 57.148 175.611 57.9418 174.733L58.9173 173.652L57.7632 172.61L59.9967 170.138L64.3745 174.09L57.6269 181.564L55.429 179.578Z" fill="white"/>
    <path d="M71.2942 168.744L75.0081 170.996L67.7654 182.939C67.3044 183.699 67.1404 184.494 68.1955 185.134C69.1662 185.723 69.9729 185.057 70.3836 184.382L77.5614 172.544L81.2753 174.795L74.328 186.254C72.7031 188.934 70.2456 190.273 66.4473 187.969C63.3032 186.062 62.3763 183.452 64.3453 180.202L71.2926 168.744H71.2942Z" fill="white"/>
    <path d="M75.4139 192.513L85.6303 176.557L90.5372 178.371L87.8898 197.126L83.7701 195.602L84.4405 192.008L81.246 190.826L79.5108 194.026L75.4139 192.511V192.513ZM86.9191 180.613L86.872 180.595L82.8157 187.935L85.1758 188.809L86.9175 180.611L86.9191 180.613Z" fill="white"/>
    <path d="M96.246 198.823L91.9608 198.119L94.9621 179.854L101.221 180.884C104.727 181.46 106.25 183.161 105.652 186.789C105.333 188.737 104.641 190.048 102.703 190.581L102.695 190.629C103.844 191.094 104.56 192.061 104.425 193.34C104.307 194.82 103.815 197.966 103.867 199.175C103.924 199.435 104.01 199.674 104.177 199.877L104.136 200.12L99.4616 199.352C99.3967 198.992 99.3545 198.635 99.3902 198.265C99.5817 196.645 99.9275 195.152 99.9891 194.012C100.051 192.873 99.8301 192.085 98.8448 191.848L97.4326 191.616L96.2477 198.825L96.246 198.823ZM97.9715 188.328L99.4324 188.568C100.674 188.772 101.155 187.675 101.338 186.555C101.693 184.388 100.809 184.141 98.7068 183.846L97.9699 188.326L97.9715 188.328Z" fill="white"/>
    <path d="M107.628 200.365L111.204 181.758L116.434 181.625L120.925 200.027L116.534 200.139L115.827 196.554L112.421 196.64L111.994 200.254L107.628 200.365ZM113.905 185.047H113.856L112.809 193.369L115.325 193.306L113.906 185.047H113.905Z" fill="white"/>
    <path d="M126.563 188.516L126.525 188.575L129.113 198.569L125.087 199.448L121.138 181.366L125.501 180.413L130.986 189.799L131.059 189.782L128.442 179.77L132.468 178.891L136.417 196.973L132.077 197.921L126.563 188.516Z" fill="white"/>
    <path d="M133.523 178.542L143.898 174.184L145.332 177.596L142.101 178.953L147.836 192.604L143.832 194.285L138.097 180.634L134.958 181.954L133.524 178.54L133.523 178.542Z" fill="white"/>
    <path d="M155.009 189.111L145.005 173.538L153.373 168.164L155.374 171.279L150.661 174.306L152.501 177.171L157.069 174.236L159.07 177.351L154.503 180.286L156.663 183.649L161.625 180.461L163.627 183.576L155.011 189.111H155.009Z" fill="white"/>
    <path d="M167.493 180.572L154.972 166.942L162.296 160.214L164.8 162.939L160.676 166.729L162.981 169.237L166.979 165.564L169.483 168.289L165.485 171.963L168.19 174.907L172.533 170.917L175.038 173.643L167.496 180.572H167.493Z" fill="white"/>
    <path d="M56.3283 71.0609L42.9548 58.2636L47.1864 53.842L56.6383 59.7781L56.6724 59.7423L50.3776 50.508L54.5752 46.1221L67.9488 58.9194L65.0822 61.9142L54.9047 51.5598L54.8707 51.5955L63.2399 63.8393L61.0047 66.1751L48.4558 58.2993L48.4217 58.335L59.1786 68.0823L56.3299 71.0593L56.3283 71.0609Z" fill="white"/>
    <path d="M75.6606 46.9141C77.9607 50.3926 77.9444 53.0076 74.2793 55.4294C70.6141 57.8512 68.1419 56.8838 65.8419 53.4053L61.6913 47.1268C59.7321 44.1628 60.4123 41.3449 63.5824 39.2494C66.7525 37.1538 69.5493 37.67 71.5101 40.634L75.6606 46.9125V46.9141ZM68.0494 43.2782C67.4229 42.3318 66.5918 41.254 65.3987 42.0429C64.2463 42.8058 64.8501 44.0329 65.4767 44.9793L69.6678 51.3195C70.2537 52.2041 71.2682 53.4264 72.4418 52.6505C73.6154 51.8746 72.8265 50.503 72.2405 49.6184L68.0494 43.2782Z" fill="white"/>
    <path d="M79.7072 40.1388L79.6813 40.2037L84.0022 49.5793L80.1958 51.1603L73.0959 34.0664L77.2205 32.3523L84.2863 40.6144L84.3545 40.5868L80.001 31.1982L83.8074 29.6172L90.9073 46.7111L86.8055 48.4155L79.7072 40.1404V40.1388Z" fill="white"/>
    <path d="M92.55 46.273L88.6754 28.1744L98.4 26.0918L99.1743 29.7115L93.696 30.8851L94.4086 34.2159L99.7181 33.0797L100.492 36.6994L95.1828 37.8356L96.0204 41.7443L101.788 40.5091L102.562 44.1288L92.5468 46.273H92.55Z" fill="white"/>
    <path d="M109.493 31.2646H109.542L111.58 25.1533L115.922 25.0234L111.778 35.8875L112.011 43.6578L107.668 43.7876L107.436 36.0174L102.749 25.4179L107.139 25.2864L109.491 31.2646H109.493Z" fill="white"/>
    <path d="M123.845 44.4527L128.506 26.5391L133.951 27.9561C137.128 28.7823 139.345 30.4558 138.407 34.0626C137.996 35.6387 137.057 36.8983 135.394 37.3074L135.381 37.3544C137.006 38.9501 137.164 40.0116 136.586 42.2322C135.641 45.8633 133.184 46.881 129.768 45.9915L123.845 44.4511V44.4527ZM128.887 42.3214C131.002 42.8198 131.848 43.1931 132.476 40.781C133.016 38.7033 131.81 38.4404 130.038 37.9031L128.889 42.3214H128.887ZM130.875 34.6794C132.745 35.0381 133.575 35.3823 134.127 33.2559C134.586 31.4882 133.349 31.2431 131.869 30.8584L130.874 34.6794H130.875Z" fill="white"/>
    <path d="M135.73 47.5327L147.364 32.5781L152.084 34.8344L147.731 53.2691L143.767 51.3748L144.763 47.8573L141.691 46.3883L139.67 49.4156L135.729 47.5327H135.73ZM148.278 36.7351L148.234 36.714L143.522 43.6532L145.793 44.7391L148.278 36.7368V36.7351Z" fill="white"/>
    <path d="M161.312 48.3501L162.015 47.3973C162.953 46.1263 162.981 45.1346 162.325 44.6508C161.247 43.8246 160.549 44.2304 159.832 45.2027L154.373 52.5526C153.758 53.3869 153.728 54.132 154.641 54.8056C155.832 55.6854 156.84 54.528 157.514 53.6142L158.51 52.2636L162.003 54.8445L160.655 56.6706C158.764 59.232 155.975 59.9333 152.402 57.2939C149.187 54.9192 149.196 52.288 151.44 49.251L155.955 43.1364C158.345 39.8997 160.948 39.4907 164.144 41.8508C167.123 44.0503 167.97 46.6393 165.727 49.6779L164.804 50.9278L161.31 48.3469L161.312 48.3501Z" fill="white"/>
    <path d="M158.791 61.6476L172.387 49.0889L175.335 52.2801L169.897 57.3039L169.931 57.3396L177.547 54.6727L180.562 57.9353L171.882 60.5779L167.133 70.6758L164.018 67.3044L167.125 61.1752L165.094 61.7401L161.741 64.8388L158.793 61.6476H158.791Z" fill="white"/>
    <path d="M190.371 103.347L193.304 109.56L200.084 110.666L195.081 115.376L196.125 122.166L190.099 118.864L183.964 121.955L185.243 115.204L180.407 110.323L187.223 109.453L190.371 103.347Z" fill="white"/>
    <path d="M185.681 78.7744L188.682 82.8698L193.757 82.7204L190.789 86.8401L192.5 91.6204L187.665 90.0703L183.647 93.1738L183.626 88.0965L179.433 85.2348L184.256 83.6473L185.681 78.7744Z" fill="white"/>
    <path d="M180.734 145.704L185.593 144.233L189.561 147.404L189.664 142.328L193.904 139.536L189.108 137.867L187.762 132.972L184.696 137.018L179.623 136.785L182.524 140.953L180.734 145.704Z" fill="white"/>
    <path d="M33.6295 103.347L30.698 109.56L23.9162 110.666L28.9189 115.376L27.8768 122.166L33.9005 118.864L40.0379 121.955L38.7588 115.204L43.5943 110.323L36.7785 109.453L33.6295 103.347Z" fill="white"/>
    <path d="M38.3189 78.7744L35.3192 82.8698L30.2435 82.7204L33.2123 86.8401L31.5014 91.6204L36.3353 90.0703L40.3544 93.1738L40.3739 88.0965L44.5682 85.2348L39.7457 83.6473L38.3189 78.7744Z" fill="white"/>
    <path d="M43.2664 145.704L38.4065 144.233L34.4394 147.404L34.3372 142.328L30.0958 139.536L34.8923 137.867L36.2379 132.972L39.3058 137.018L44.3767 136.785L41.4776 140.953L43.2664 145.704Z" fill="white"/>
    <path d="M82.0284 124.823H88.0099C94.5157 124.823 96.7184 125.872 96.7184 133.322V142.206C96.7184 146.928 95.3192 149.726 88.0099 149.726H82.0284V124.825V124.823ZM87.8346 146.159C90.6671 146.159 90.9122 145.074 90.9122 142.696V132.449C90.9122 129.126 90.7726 128.391 87.8346 128.391V146.159Z" fill="#292B3D"/>
    <path d="M109.293 124.823L112.51 149.725H106.74L106.076 143.604H102.929L101.984 149.725H97.0868L101.319 124.823H109.293ZM105.656 139.828L104.641 128.742H104.571L103.557 139.828H105.656Z" fill="#292B3D"/>
    <path d="M116.357 140.562L111.426 124.823H117.093L119.226 134.722H119.295L121.428 124.823H127.095L122.164 140.562V149.725H116.357V140.562Z" fill="#292B3D"/>
    <path d="M136.167 133.741V130.243C136.167 129.019 135.782 128.32 134.628 128.32C133.369 128.32 133.089 129.019 133.089 130.243C133.089 134.441 141.973 135.665 141.973 143.359C141.973 148.045 139.456 150.213 134.594 150.213C130.887 150.213 127.285 148.954 127.285 144.652V140.036H133.091V144.337C133.091 145.806 133.546 146.227 134.63 146.227C135.575 146.227 136.169 145.806 136.169 144.337C136.169 138.706 127.285 138.601 127.285 130.558C127.285 126.045 130.259 124.333 134.735 124.333C138.652 124.333 141.975 125.662 141.975 129.824V133.741H136.169H136.167Z" fill="#292B3D"/>
    <path d="M110.514 92.8203C110.514 96.7305 109.094 100.031 106.914 103.23L97.5827 116.992H86.4768L94.7428 105.617L94.6414 105.516C94.0836 105.719 93.3736 105.719 92.8158 105.719C91.0916 105.719 89.3674 105.262 87.846 104.5C83.3327 102.266 81 97.8984 81 92.9727C81 84.6445 87.3389 78.7031 95.5542 78.7031C99.9661 78.7031 104.429 80.2773 107.37 83.6289C109.652 86.2188 110.514 89.4687 110.514 92.8203ZM100.93 92.3125C100.93 89.3672 98.6983 87.1328 95.757 87.1328C92.9172 87.1328 90.5845 89.2656 90.5845 92.1602C90.5845 95.1055 92.8158 97.2891 95.757 97.2891C98.5969 97.2891 100.93 95.2578 100.93 92.3125Z" fill="#3B3D53"/>
    <path d="M141 103.434C141 109.07 138.617 113.895 133.343 116.332C131.416 117.246 129.286 117.703 127.156 117.703C125.178 117.703 123.251 117.297 121.425 116.535C115.847 114.199 113.007 109.426 113.007 103.434V92.9727C113.007 86.9297 115.796 82.1055 121.476 79.8203C123.302 79.1094 125.229 78.7031 127.156 78.7031C129.083 78.7031 131.111 79.1602 132.886 79.9219C138.363 82.3086 141 87.082 141 92.9727V103.434ZM131.416 103.688V92.7188C131.416 89.7734 130.452 87.1328 127.004 87.1328C123.707 87.1328 122.592 89.875 122.592 92.7188V103.688C122.592 106.582 123.707 109.273 127.004 109.273C130.452 109.273 131.416 106.633 131.416 103.688Z" fill="#3B3D53"/>
  </g>
  <defs>
    <linearGradient id="paint0_linear_5265_2838" x1="57.7623" y1="211.028" x2="166.22" y2="14.3965" gradientUnits="userSpaceOnUse">
      <stop stop-color="#F6B8E5"/>
      <stop offset="0.47" stop-color="#FFD1BD"/>
      <stop offset="1" stop-color="#F6B8E5"/>
    </linearGradient>
    <linearGradient id="paint1_linear_5265_2838" x1="64.0774" y1="72.4921" x2="159.923" y2="152.914" gradientUnits="userSpaceOnUse">
      <stop stop-color="#F6B7E6"/>
      <stop offset="0.15" stop-color="#F9C2D4"/>
      <stop offset="0.36" stop-color="#FDCDC3"/>
      <stop offset="0.52" stop-color="#FFD1BD"/>
      <stop offset="0.66" stop-color="#FDCDC2"/>
      <stop offset="0.84" stop-color="#FAC4D1"/>
      <stop offset="1" stop-color="#F6B8E5"/>
    </linearGradient>
    <linearGradient id="paint2_linear_5265_2838" x1="66.6178" y1="74.6216" x2="157.384" y2="150.784" gradientUnits="userSpaceOnUse">
      <stop stop-color="#A8853B"/>
      <stop offset="0.11" stop-color="#C2A863"/>
      <stop offset="0.23" stop-color="#DBCB8B"/>
      <stop offset="0.35" stop-color="#EDE4A8"/>
      <stop offset="0.45" stop-color="#F9F3B9"/>
      <stop offset="0.52" stop-color="#FDF9C0"/>
      <stop offset="0.59" stop-color="#FAF4BA"/>
      <stop offset="0.67" stop-color="#F2E8AB"/>
      <stop offset="0.77" stop-color="#E4D492"/>
      <stop offset="0.87" stop-color="#D1B96F"/>
      <stop offset="0.97" stop-color="#B99542"/>
      <stop offset="1" stop-color="#B38C36"/>
    </linearGradient>
    <linearGradient id="paint3_linear_5265_2838" x1="66.6178" y1="150.784" x2="157.384" y2="74.6216" gradientUnits="userSpaceOnUse">
      <stop stop-color="#F6B8E5"/>
      <stop offset="0.47" stop-color="#FFD1BD"/>
      <stop offset="1" stop-color="#F6B8E5"/>
    </linearGradient>
    <clipPath id="clip0_5265_2838">
      <rect width="224" height="224" fill="white" transform="translate(0 0.703125)"/>
    </clipPath>
  </defs>
</svg>